<svg width="20" height="20" viewBox="0 0 20 20" fill="none" xmlns="http://www.w3.org/2000/svg">
  <!-- Paya "P" icon with shopping bag concept -->
  <path d="M6 7C6 5.89543 6.89543 5 8 5H12C13.1046 5 14 5.89543 14 7V7.5H15C15.5523 7.5 16 7.94772 16 8.5V16C16 17.1046 15.1046 18 14 18H6C4.89543 18 4 17.1046 4 16V8.5C4 7.94772 4.44772 7.5 5 7.5H6V7Z" stroke="currentColor" stroke-width="1.5" stroke-linecap="round" stroke-linejoin="round"/>
  <path d="M8 7V5.5C8 4.11929 9.11929 3 10.5 3H10.5C11.8807 3 13 4.11929 13 5.5V7" stroke="currentColor" stroke-width="1.5" stroke-linecap="round"/>
  <circle cx="10" cy="12" r="1.5" fill="currentColor"/>
</svg>
