<svg width="624" height="183" viewBox="0 0 624 183" fill="none" xmlns="http://www.w3.org/2000/svg">
<g clip-path="url(#clip0_3779_535)">
<path d="M0 183C0.919867 179.65 1.80974 176.301 2.7596 172.961C13.4581 135.365 24.1665 97.7793 34.865 60.1934C40.3742 40.8455 45.8834 21.4876 51.3926 2.13974C51.5426 1.6098 51.7225 1.07986 51.9125 0.489921H53.1423C85.9376 0.489921 118.733 0.459924 151.528 0.519918C158.287 0.529917 164.486 2.45971 169.466 7.29918C175.155 12.8286 177.384 19.7778 177.074 27.527C176.954 30.4866 176.375 33.4863 175.585 36.346C172.175 48.6947 168.566 60.9933 165.096 73.322C162.487 82.6209 159.967 91.9499 157.417 101.269C154.898 110.478 149.868 117.767 141.3 122.337C136.2 125.056 130.711 126.376 124.952 126.466C115.833 126.606 106.725 126.636 97.6059 126.726C88.8472 126.806 80.0984 126.886 71.3397 126.966C70.0199 126.976 68.7101 126.966 67.2903 126.966C66.7404 128.896 66.2204 130.726 65.7005 132.545C60.9212 149.284 56.1519 166.022 51.3826 182.76C51.3626 182.83 51.3726 182.92 51.3626 183H0ZM75.5891 88.2103H76.9389C87.3374 88.2103 97.7359 88.2103 108.134 88.2103C115.743 88.2103 122.462 83.1409 124.532 75.8217C126.892 67.4826 129.241 59.1435 131.551 50.7944C131.821 49.8045 131.971 48.7446 131.941 47.7248C131.791 42.9053 128.022 39.4757 122.862 39.4657C112.024 39.4457 101.185 39.4657 90.347 39.4657C90.037 39.4657 89.717 39.4957 89.3271 39.5157C84.7578 55.7039 80.1984 71.8721 75.5891 88.2203V88.2103Z" fill="#6D6ACC"/>
<path d="M374.606 183.001C375.836 178.581 377.046 174.152 378.305 169.742C382.245 155.884 386.214 142.025 390.164 128.167C390.284 127.747 390.354 127.327 390.494 126.717C390.004 126.717 389.624 126.717 389.234 126.717C375.116 126.767 361.008 126.817 346.89 126.887C343.1 126.907 339.281 127.157 335.572 126.117C328.333 124.067 323.003 119.938 320.994 112.348C320.074 108.859 320.394 105.349 321.374 101.93C330.892 68.4433 340.431 34.9669 349.949 1.48059C350.159 0.760671 350.459 0.470703 351.249 0.470703C367.727 0.490701 384.205 0.490701 400.682 0.490701C400.952 0.490701 401.222 0.540695 401.632 0.580691C400.992 2.88044 400.372 5.1002 399.742 7.31995C394.093 27.1278 388.444 46.9356 382.805 66.7534C381.135 72.6128 385.114 77.8422 391.204 77.8422C395.203 77.8422 399.202 77.8122 403.202 77.8622C404.162 77.8722 404.582 77.6223 404.852 76.6624C409.861 58.9543 414.91 41.2562 419.949 23.5582C422.039 16.229 424.119 8.88978 426.208 1.56058C426.308 1.22062 426.428 0.890657 426.548 0.530697H477.911C460.574 61.414 443.266 122.207 425.959 183.001H374.606Z" fill="#6D6ACC"/>
<path d="M298.237 139.545H246.854C248.074 135.215 249.274 130.966 250.484 126.726C246.295 126.726 242.215 126.706 238.136 126.726C221.178 126.796 204.231 126.906 187.273 126.956C174.675 126.996 165.506 115.787 168.396 103.579C170.166 96.0895 172.465 88.7203 174.575 81.3111C179.004 65.6828 183.494 50.0545 187.913 34.4162C190.983 23.5774 196.742 14.6184 206.14 8.20908C213.249 3.35961 221.158 0.689899 229.757 0.599909C244.795 0.439927 259.823 0.49992 274.86 0.489921C286.299 0.479922 297.737 0.479922 309.176 0.489921C312.925 0.489921 316.584 1.01986 320.024 2.61969C328.843 6.69924 333.232 15.3483 330.812 24.7573C328.383 34.2262 325.573 43.6052 322.894 53.0142C314.805 81.4711 306.686 109.918 298.587 138.375C298.477 138.755 298.367 139.135 298.237 139.545ZM245.325 87.9704C250.764 87.9704 256.203 87.9404 261.642 88.0004C262.652 88.0104 262.992 87.6804 263.242 86.7605C266.612 74.6918 270.041 62.6331 273.391 50.5545C273.731 49.3146 273.851 47.9247 273.681 46.6549C273.071 42.1354 269.511 39.2357 264.682 39.2257C256.723 39.2157 248.764 39.2257 240.805 39.2657C234.706 39.3057 230.167 42.8053 228.477 48.7447C225.868 57.9236 223.288 67.1126 220.718 76.3016C218.899 82.8109 222.828 87.9704 229.597 87.9804C234.836 87.9804 240.075 87.9804 245.315 87.9804L245.325 87.9704Z" fill="#6D6ACC"/>
<path d="M538.942 139.125C540.192 134.715 541.382 130.506 542.602 126.196C538.842 126.196 535.213 126.196 531.583 126.196C531.183 126.196 530.783 126.236 530.384 126.246C518.385 126.306 506.397 126.356 494.399 126.406C489.089 126.426 483.77 126.486 478.461 126.476C469.142 126.476 460.434 118.127 459.984 108.848C459.834 105.729 460.424 102.729 461.273 99.7593C467.493 77.9517 473.562 56.1041 479.991 34.3565C483.13 23.7376 488.73 14.5586 498.278 8.31932C504.577 4.19977 511.576 1.89003 518.975 0.900135C523.235 0.330197 527.574 0.0602267 531.873 0.0402289C554.75 -0.0397623 577.627 0.0202311 600.503 -0.00976562C605.153 -0.00976562 609.692 0.40019 613.851 2.70994C620.531 6.41953 624.18 12.0489 623.99 19.7581C623.94 22.0178 623.06 24.2676 622.43 26.4873C613.042 59.5137 603.623 92.5301 594.214 125.547C593.024 129.726 591.785 133.906 590.675 138.105C590.415 139.065 589.925 139.115 589.145 139.115C573.387 139.105 557.63 139.105 541.872 139.105H538.952L538.942 139.125ZM554.97 87.4907C555.1 87.0807 555.21 86.7808 555.29 86.4708C558.679 74.4421 562.069 62.4234 565.458 50.3947C567.258 43.9854 563.319 38.746 556.65 38.736C548.811 38.726 540.972 38.736 533.133 38.776C526.834 38.806 522.315 42.2356 520.595 48.305C517.955 57.5939 515.326 66.8929 512.766 76.2119C512.426 77.4518 512.326 78.8416 512.496 80.1115C513.106 84.611 516.685 87.4807 521.535 87.4807C531.013 87.4907 540.492 87.4807 549.971 87.4807H554.97V87.4907Z" fill="#6D6ACC"/>
</g>
<defs>
<clipPath id="clip0_3779_535">
<rect width="624" height="183" fill="white"/>
</clipPath>
</defs>
</svg>
